<?xml version="1.0" encoding="UTF-8"?>
<svg id="Layer_1" data-name="Layer 1" xmlns="http://www.w3.org/2000/svg" viewBox="0 0 256.64 330.36">
  <defs>
    <style>
      .cls-1 {
        fill: none;
        stroke: #3d3d3b;
        stroke-miterlimit: 10;
        stroke-width: 14px;
      }

      .cls-2 {
        fill: #3d3d3b;
      }
    </style>
  </defs>
  <g>
    <path class="cls-2" d="M27.82,315.07l10.66-38.96h14.41l-18.01,53.51h-14.11l-17.86-53.51h14.3l10.62,38.96Z"/>
    <path class="cls-2" d="M78.3,319.62h-17.68l-3.09,10h-13.78l19.63-53.51h12.13l19.77,53.51h-13.86l-3.12-10ZM63.71,309.66h11.5l-5.77-18.56-5.73,18.56Z"/>
    <path class="cls-2" d="M137.18,276.11v35.03c0,3.97-.85,7.41-2.54,10.31-1.69,2.9-4.12,5.11-7.28,6.63-3.16,1.52-6.9,2.28-11.21,2.28-6.52,0-11.65-1.69-15.4-5.07-3.75-3.38-5.66-8.01-5.73-13.89v-35.28h12.97v35.54c.15,5.86,2.87,8.78,8.16,8.78,2.67,0,4.69-.74,6.06-2.21,1.37-1.47,2.06-3.86,2.06-7.17v-34.95h12.9Z"/>
    <path class="cls-2" d="M155.9,319.7h22.46v9.92h-35.36v-53.51h12.9v43.59Z"/>
    <path class="cls-2" d="M212.71,286.07h-16.06v43.55h-12.9v-43.55h-15.77v-9.96h44.73v9.96Z"/>
    <path class="cls-2" d="M241.26,315.4c0-1.89-.67-3.36-2-4.41-1.34-1.05-3.68-2.14-7.04-3.27-3.36-1.13-6.1-2.22-8.23-3.27-6.93-3.41-10.4-8.09-10.4-14.04,0-2.96.86-5.58,2.59-7.85,1.73-2.27,4.17-4.03,7.33-5.29,3.16-1.26,6.71-1.89,10.66-1.89s7.3.69,10.35,2.06c3.05,1.37,5.42,3.33,7.11,5.86,1.69,2.54,2.54,5.43,2.54,8.69h-12.86c0-2.18-.67-3.87-2-5.07-1.34-1.2-3.14-1.8-5.42-1.8s-4.12.51-5.46,1.53c-1.34,1.02-2,2.31-2,3.88,0,1.37.74,2.62,2.21,3.73,1.47,1.12,4.06,2.27,7.75,3.45,3.7,1.19,6.74,2.47,9.11,3.84,5.78,3.33,8.67,7.93,8.67,13.78,0,4.68-1.76,8.36-5.29,11.03-3.53,2.67-8.37,4.01-14.52,4.01-4.34,0-8.26-.78-11.78-2.33-3.52-1.56-6.16-3.69-7.94-6.4-1.78-2.71-2.66-5.83-2.66-9.35h12.94c0,2.87.74,4.98,2.22,6.34,1.48,1.36,3.89,2.04,7.22,2.04,2.13,0,3.82-.46,5.05-1.38,1.24-.92,1.86-2.21,1.86-3.88Z"/>
  </g>
  <g>
    <rect class="cls-1" x="7" y="7" width="242.64" height="242.64" rx="12" ry="12"/>
    <g>
      <circle class="cls-1" cx="128.32" cy="128.32" r="70.72"/>
      <circle class="cls-1" cx="128.32" cy="128.32" r="23.57"/>
      <line class="cls-1" x1="77.03" y1="77.03" x2="110.66" y2="110.66"/>
      <line class="cls-1" x1="146.01" y1="146.01" x2="176.18" y2="176.18"/>
      <line class="cls-1" x1="146.42" y1="110.22" x2="180.1" y2="76.54"/>
      <line class="cls-1" x1="80.71" y1="175.93" x2="112.74" y2="143.9"/>
    </g>
  </g>
</svg>